# xmcd
#
# Track frame offsets: 
#        183
#        12268
#        24770
#        36528
#        44338
#        56173
#        64713
#        72318
#        82820
#        95033
#        110890
#        122755
#        134928
#        146353
#        156855
#        169093
#        180233
#        190715
#        204090
#        212893
#
# Disc length: 2974 seconds
#
# Revision: 0
# Processed by: cddbd v1.5.2PL0 Copyright (c) Steve Scherf et al.
# Submitted via: ExactAudioCopyFreeDBPlugin 1.0
#
DISCID=1f0b9c14
DTITLE=Various Artist - Road Of Broken Hearts
DYEAR=1900
DGENRE=Country
TTITLE0=Hank Williams - The Wild Side Of Life
TTITLE1=Kitty Wells - Makin' Believe
TTITLE2=Marvin Rainwater - I Can't Forget
TTITLE3=Grandpa Jones - She's The Steppin' Out Kind
TTITLE4=Hawkshaw Hawkins - A Heartache To Recall
TTITLE5=Cowboy Copas - Balll and Chain
TTITLE6=Spade Cooley - Wabash Cannonball
TTITLE7=Patsy Cline - Honky Tonk Merry Go Round
TTITLE8=Roy Acuff - Take My Hand
TTITLE9=Hoyt Axton - Me and My Gin
TTITLE10=Elton Britt - Cowpoke
TTITLE11=Roy Drusky - Lukenbach Texas
TTITLE12=Sonny James - Jenny Lou
TTITLE13=Ferlin Husky - Wings Of A Dove
TTITLE14=Stonewall Jackson - Ol' Blue
TTITLE15=Hank Locklin - Send Me The Pillow
TTITLE16=Jimmy C. Newman - DJ For A Day
TTITLE17=Charlie Louvin - I Don't Like You Anymore
TTITLE18=Jimmy Skinner - I'm A Regular Daddy
TTITLE19=Cowboy Copas - Road Of Broken Hearts
EXTD=
EXTT0=
EXTT1=
EXTT2=
EXTT3=
EXTT4=
EXTT5=
EXTT6=
EXTT7=
EXTT8=
EXTT9=
EXTT10=
EXTT11=
EXTT12=
EXTT13=
EXTT14=
EXTT15=
EXTT16=
EXTT17=
EXTT18=
EXTT19=
PLAYORDER=
